<svg xmlns="http://www.w3.org/2000/svg" xmlns:xlink="http://www.w3.org/1999/xlink" width="443" height="440" viewBox="0 0 443 440">
  <defs>
    <clipPath id="clip-path">
      <rect id="Rectangle_26" data-name="Rectangle 26" width="443" height="440" transform="translate(-0.495)" fill="#fff"/>
    </clipPath>
  </defs>
  <g id="air-icon" transform="translate(0.495)" clip-path="url(#clip-path)">
    <g id="air-icon-2" data-name="air-icon" transform="translate(42.317 91.346)">
      <path id="airplane" d="M42.935,153.793a6.3,6.3,0,0,0-3.087,8.247l14.163,30.4a6.285,6.285,0,0,0,8.308,3.087l107.005-49.98-9.692,101.338a6.3,6.3,0,0,0,2.074,5.289,27.473,27.473,0,0,0,16.621,6.294,20.238,20.238,0,0,0,4.971-.627c8.687-2.267,15.422-10.007,20.017-23.228l42.109-124.69,83.4-38.9c24.548-11.454,37.2-34.68,28.7-52.808A31.866,31.866,0,0,0,332.914,1.03,58.345,58.345,0,0,0,298.547,6.32L202.3,51.449,98.828,10.976c-13.031-4.908-23.352-4.782-30.59.444a25.669,25.669,0,0,0-9.381,20.328,6.3,6.3,0,0,0,2.706,4.975l69.678,47.9-39.9,18.883-66.912-17a6.3,6.3,0,0,0-6.986,3.022L.761,119.552a6.295,6.295,0,0,0,3.274,8.876l49.537,20.458ZM71.758,28.6a10.769,10.769,0,0,1,3.779-6.8c3.589-2.582,10.136-2.2,18.883,1.068l92.15,35.942L144.523,78.452ZM15.112,119.491l10.952-19.449,64.391,15.986a6.3,6.3,0,0,0,4.157-.375L303.9,17.9a46.006,46.006,0,0,1,26.876-4.281,19.713,19.713,0,0,1,15.359,9.944c5.283,11.332-5.1,27.886-22.664,36.068L250.96,93.623l4.407-13.033a6.4,6.4,0,1,0-12.148-4.027l-51.8,154.147c-3.085,8.752-6.925,13.977-11.2,15.107a10.653,10.653,0,0,1-7.68-1.445l12.59-132.184a6.323,6.323,0,0,0-12.59-1.194l-1.949,20.2L62.569,181.552,53.7,162.669l17.746-8.306a6.293,6.293,0,0,0,0-11.519Zm0,0" transform="translate(0.001 -0.376)" fill="#f31819"/>
    </g>
  </g>
</svg>
