<svg xmlns="http://www.w3.org/2000/svg" xmlns:xlink="http://www.w3.org/1999/xlink" width="441" height="440" viewBox="0 0 441 440">
  <defs>
    <clipPath id="clip-path">
      <rect id="Rectangle_28" data-name="Rectangle 28" width="441" height="440" transform="translate(-0.165)" fill="#fff"/>
    </clipPath>
  </defs>
  <g id="express-icon" transform="translate(0.165)" clip-path="url(#clip-path)">
    <g id="express-icon-2" data-name="express-icon" transform="translate(65.241 73.078)">
      <g id="XMLID_386_" transform="translate(0 0)">
        <path id="XMLID_389_" d="M308.523,172.9A121.859,121.859,0,0,0,213.763,66.05V50.709a20.527,20.527,0,0,0-4.954-40.447h-43.47a20.527,20.527,0,0,0-4.955,40.447V66.093a121.23,121.23,0,0,0-59.456,32.7,122.544,122.544,0,0,0-10.251,11.634c-.152-.011-.3-.023-.458-.023H47.194a6.038,6.038,0,1,0,0,12.075H82.46a121.033,121.033,0,0,0-10.713,23.206H6.038a6.038,6.038,0,1,0,0,12.075h62.3a122.758,122.758,0,0,0-3,23.207H38.64a6.038,6.038,0,1,0,0,12.075H65.532a122.578,122.578,0,0,0,3.77,23.207H30.188a6.038,6.038,0,0,0,0,12.075H73.155A121.942,121.942,0,0,0,175.109,306.4q5.983.591,11.966.589a122.252,122.252,0,0,0,66.557-19.671,6.038,6.038,0,0,0-6.589-10.119c-43.2,28.133-101.063,22.05-137.577-14.464a109.884,109.884,0,0,1,155.4-155.4c36.466,36.467,42.582,94.277,14.542,137.459a6.037,6.037,0,1,0,10.127,6.576A122.348,122.348,0,0,0,308.523,172.9ZM156.886,30.79a8.462,8.462,0,0,1,8.453-8.453h43.47a8.453,8.453,0,0,1,0,16.905h-43.47A8.462,8.462,0,0,1,156.886,30.79Zm15.573,33.227v-12.7h29.23V64A123.019,123.019,0,0,0,172.458,64.017Z" transform="translate(0 -10.262)" fill="#f31819"/>
        <path id="XMLID_391_" d="M441.808,425.5a6.04,6.04,0,1,0,4.269,1.769A6.07,6.07,0,0,0,441.808,425.5Z" transform="translate(-172.671 -174.797)" fill="#f31819"/>
        <path id="XMLID_394_" d="M248.532,144.609a93.66,93.66,0,1,0,93.66,93.66A93.766,93.766,0,0,0,248.532,144.609Zm0,175.245a81.585,81.585,0,1,1,81.585-81.585A81.677,81.677,0,0,1,248.532,319.854Z" transform="translate(-61.367 -63.496)" fill="#f31819"/>
        <path id="XMLID_397_" d="M327.205,221.18l-29.9,29.9a18.713,18.713,0,0,0-16.574,0L267.343,237.7a6.038,6.038,0,0,0-8.539,8.538l13.383,13.383a18.761,18.761,0,1,0,33.652,0L334.866,230.6h0l.877-.877a6.038,6.038,0,0,0-8.538-8.538ZM289.014,274.6a6.686,6.686,0,1,1,6.686-6.686A6.694,6.694,0,0,1,289.014,274.6Z" transform="translate(-101.849 -93.136)" fill="#f31819"/>
        <path id="XMLID_398_" d="M409.286,289.86h-5.594a6.038,6.038,0,0,0,0,12.075h5.594a6.038,6.038,0,0,0,0-12.075Z" transform="translate(-157.568 -121.051)" fill="#f31819"/>
        <path id="XMLID_399_" d="M204.713,289.616H199.12a6.038,6.038,0,1,0,0,12.075h5.593a6.038,6.038,0,0,0,0-12.075Z" transform="translate(-76.508 -120.954)" fill="#f31819"/>
        <path id="XMLID_400_" d="M306.161,200.487a6.038,6.038,0,0,0,6.037-6.038v-5.593a6.038,6.038,0,1,0-12.075,0v5.593A6.038,6.038,0,0,0,306.161,200.487Z" transform="translate(-118.922 -78.637)" fill="#f31819"/>
        <path id="XMLID_424_" d="M305.917,387.393a6.038,6.038,0,0,0-6.038,6.038v5.593a6.038,6.038,0,0,0,12.075,0v-5.593A6.038,6.038,0,0,0,305.917,387.393Z" transform="translate(-118.825 -159.698)" fill="#f31819"/>
        <path id="XMLID_425_" d="M6.038,351.44a6.038,6.038,0,1,0,4.268,10.306A6.038,6.038,0,0,0,6.038,351.44Z" transform="translate(0 -145.452)" fill="#f31819"/>
      </g>
    </g>
  </g>
</svg>
