<svg xmlns="http://www.w3.org/2000/svg" xmlns:xlink="http://www.w3.org/1999/xlink" width="440" height="440" viewBox="0 0 440 440">
  <defs>
    <clipPath id="clip-path">
      <rect id="Rectangle_27" data-name="Rectangle 27" width="440" height="440" transform="translate(0.33)" fill="#fff"/>
    </clipPath>
  </defs>
  <g id="land-icon" transform="translate(-0.33)" clip-path="url(#clip-path)">
    <g id="land-icon-2" data-name="land-icon" transform="translate(42.039 107.007)">
      <g id="Group_200" data-name="Group 200" transform="translate(0 0)">
        <g id="Group_199" data-name="Group 199" transform="translate(0 0)">
          <path id="Path_303" data-name="Path 303" d="M330.647,189.4l-9.207-36.828a5.568,5.568,0,0,0,4.406-5.443V141.2a23.407,23.407,0,0,0-23.381-23.381H260.529V105.567a11.518,11.518,0,0,0-11.5-11.5H35.256a11.518,11.518,0,0,0-11.5,11.5V206.513a5.567,5.567,0,0,0,11.134,0V105.567a.371.371,0,0,1,.371-.371H249.023a.371.371,0,0,1,.371.371V206.514a5.567,5.567,0,1,0,11.134,0V200.2h65.7a18.217,18.217,0,0,1,17.3,12.618h-17.31a5.567,5.567,0,0,0-5.567,5.567v11.876a17.462,17.462,0,0,0,17.443,17.443H344.4V272.2H329.845a35.246,35.246,0,0,0-66.638,0h-2.68V230.264a5.567,5.567,0,1,0-11.134,0V272.2h-115.5a35.246,35.246,0,0,0-66.638,0h-32a.371.371,0,0,1-.371-.371V259.582H59.009a5.567,5.567,0,1,0,0-11.134H5.567a5.567,5.567,0,1,0,0,11.134H23.752v12.247a11.518,11.518,0,0,0,11.5,11.5H65.328c0,.124-.01.247-.01.371a35.256,35.256,0,0,0,70.513,0c0-.125-.008-.247-.01-.371H261.279c0,.124-.01.247-.01.371a35.256,35.256,0,0,0,70.513,0c0-.125-.008-.247-.01-.371h18.2a5.567,5.567,0,0,0,5.567-5.567V218.388A29.363,29.363,0,0,0,330.647,189.4Zm-70.118-60.456h41.937A12.261,12.261,0,0,1,314.712,141.2v.371H260.529Zm0,60.122V152.7h49.466l9.093,36.37ZM100.574,307.829A24.123,24.123,0,1,1,124.7,283.706,24.15,24.15,0,0,1,100.574,307.829Zm195.953,0a24.123,24.123,0,1,1,24.123-24.123A24.15,24.15,0,0,1,296.527,307.829ZM344.4,236.573h-6.309a6.317,6.317,0,0,1-6.309-6.309v-6.309H344.4v12.619Z" transform="translate(0 -94.062)" fill="#f31819"/>
        </g>
      </g>
      <g id="Group_202" data-name="Group 202" transform="translate(89.069 178.139)">
        <g id="Group_201" data-name="Group 201" transform="translate(0 0)">
          <path id="Path_304" data-name="Path 304" d="M139.772,350.6a11.5,11.5,0,1,0,11.5,11.505A11.518,11.518,0,0,0,139.772,350.6Z" transform="translate(-128.267 -350.597)" fill="#f31819"/>
        </g>
      </g>
      <g id="Group_204" data-name="Group 204" transform="translate(285.022 178.139)">
        <g id="Group_203" data-name="Group 203" transform="translate(0 0)">
          <path id="Path_305" data-name="Path 305" d="M421.96,350.6a11.5,11.5,0,1,0,11.5,11.505A11.518,11.518,0,0,0,421.96,350.6Z" transform="translate(-410.455 -350.597)" fill="#f31819"/>
        </g>
      </g>
      <g id="Group_206" data-name="Group 206" transform="translate(142.511 154.388)">
        <g id="Group_205" data-name="Group 205">
          <path id="Path_306" data-name="Path 306" d="M293.926,316.393H210.794a5.567,5.567,0,0,0,0,11.134h83.131a5.567,5.567,0,0,0,0-11.134Z" transform="translate(-205.227 -316.393)" fill="#f31819"/>
        </g>
      </g>
      <g id="Group_208" data-name="Group 208" transform="translate(11.876 130.636)">
        <g id="Group_207" data-name="Group 207" transform="translate(0 0)">
          <path id="Path_307" data-name="Path 307" d="M93.925,282.188H22.669a5.567,5.567,0,1,0,0,11.134H93.925a5.567,5.567,0,1,0,0-11.134Z" transform="translate(-17.102 -282.188)" fill="#f31819"/>
        </g>
      </g>
      <g id="Group_210" data-name="Group 210" transform="translate(100.946 53.442)">
        <g id="Group_209" data-name="Group 209">
          <path id="Path_308" data-name="Path 308" d="M238,172.653a5.567,5.567,0,0,0-7.873,0l-49.506,49.5L154.873,196.4A5.567,5.567,0,0,0,147,204.277l29.69,29.69a5.566,5.566,0,0,0,7.872,0L238,180.526A5.568,5.568,0,0,0,238,172.653Z" transform="translate(-145.37 -171.023)" fill="#f31819"/>
        </g>
      </g>
    </g>
  </g>
</svg>
