<svg xmlns="http://www.w3.org/2000/svg" xmlns:xlink="http://www.w3.org/1999/xlink" width="440" height="440" viewBox="0 0 440 440">
  <defs>
    <clipPath id="clip-path">
      <rect id="Rectangle_25" data-name="Rectangle 25" width="440" height="440" fill="#fff"/>
    </clipPath>
  </defs>
  <g id="ocean-icon" clip-path="url(#clip-path)">
    <g id="ocean-icon-2" data-name="ocean-icon" transform="translate(79.434 77.139)">
      <g id="Group_212" data-name="Group 212" transform="translate(0)">
        <g id="Group_211" data-name="Group 211" transform="translate(0)">
          <rect id="Rectangle_15" data-name="Rectangle 15" width="137.867" height="12.533" transform="translate(72.065 84.6)" fill="#f31819"/>
          <rect id="Rectangle_16" data-name="Rectangle 16" width="12.533" height="12.533" transform="translate(197.399 103.4)" fill="#f31819"/>
          <rect id="Rectangle_17" data-name="Rectangle 17" width="12.533" height="12.533" transform="translate(72.065 103.4)" fill="#f31819"/>
          <rect id="Rectangle_18" data-name="Rectangle 18" width="12.533" height="12.533" transform="translate(134.732 43.867)" fill="#f31819"/>
          <rect id="Rectangle_19" data-name="Rectangle 19" width="12.533" height="12.533" transform="translate(153.532 43.867)" fill="#f31819"/>
          <rect id="Rectangle_20" data-name="Rectangle 20" width="12.533" height="12.533" transform="translate(115.932 43.867)" fill="#f31819"/>
          <rect id="Rectangle_21" data-name="Rectangle 21" width="12.533" height="12.533" transform="translate(97.132 43.867)" fill="#f31819"/>
          <rect id="Rectangle_22" data-name="Rectangle 22" width="12.533" height="12.533" transform="translate(172.332 43.867)" fill="#f31819"/>
          <path id="Path_309" data-name="Path 309" d="M261.116,270.2c-5.5,2.933-10.266,5.466-20.208,5.524l36.936-110.813a6.268,6.268,0,0,0-3.374-7.7l-33.9-15.257v-60.5a18.821,18.821,0,0,0-18.8-18.8h-9.4V31.333a6.266,6.266,0,0,0-6.266-6.266H152.832V0H140.3V25.067H87.033a6.266,6.266,0,0,0-6.266,6.266V62.666h-9.4a18.821,18.821,0,0,0-18.8,18.8v60.491L18.661,157.218a6.265,6.265,0,0,0-3.372,7.7L52.224,275.726c-9.943-.059-14.709-2.591-20.208-5.524-6.155-3.282-13.132-7-26.449-7v12.533c10.183,0,14.988,2.562,20.551,5.529,6.155,3.283,13.131,7,26.448,7a51.966,51.966,0,0,0,9.19-.711c7.69-1.21,12.772-3.917,17.257-6.307,5.554-2.959,10.349-5.515,20.493-5.515,10.183,0,14.988,2.562,20.551,5.529,6.155,3.283,13.132,7,26.448,7s20.293-3.721,26.449-7c5.563-2.967,10.367-5.529,20.551-5.529s14.99,2.556,20.56,5.515c4.5,2.389,9.6,5.1,17.313,6.307a51.881,51.881,0,0,0,9.187.711c13.317,0,20.293-3.721,26.449-7,5.563-2.967,10.367-5.529,20.551-5.529V263.2C274.249,263.2,267.272,266.92,261.116,270.2Zm3.047-103.88L259.67,179.8,152.832,130.716V116.225ZM93.3,37.6H199.832V62.667H93.3ZM65.1,81.467A6.274,6.274,0,0,1,71.365,75.2h150.4a6.274,6.274,0,0,1,6.266,6.266v54.854l-78.9-35.5a6.261,6.261,0,0,0-5.143,0L65.1,136.318V81.467Zm-36.13,84.857,111.33-50.1v14.491L33.462,179.8ZM228.28,273.978a50.853,50.853,0,0,1-8.336-3.8c-6.158-3.272-13.139-6.98-26.44-6.98-13.317,0-20.293,3.721-26.449,7-5.564,2.967-10.367,5.53-20.551,5.53s-14.988-2.562-20.551-5.53c-6.155-3.282-13.132-7-26.449-7-13.274,0-20.24,3.712-26.386,6.987a50.688,50.688,0,0,1-8.27,3.783l-27.4-82.2L140.3,144.509v74.824h12.533V144.509l102.851,47.256Z" transform="translate(-5.567)" fill="#f31819"/>
        </g>
      </g>
    </g>
  </g>
</svg>
