<svg xmlns="http://www.w3.org/2000/svg" width="1914.479" height="417.981" viewBox="0 0 1914.479 417.981">
  <g id="somcargo-logo" transform="translate(-1332 -474.264)">
    <path id="Path_1" data-name="Path 1" d="M1747.944,672.3a207.6,207.6,0,0,1-15.55,89.5c-3.378-43.385-21.437-85.786-57.4-119.435-21.046-22.466-45.493-42.12-63.851-66.87l2.248-4.39h51.3l1.954-5.667c-20.837-15.476-35.95-44.825-62.406-49.456-26.737-.392-53.476.078-80.171-.314-11.935-.2-16.138,5.223-15.979,16.57,2.04,89.438-16.059,79.151,54.413,144.287.983-21.91,1.73-38.949,2.513-56.029l5.909-2.089c28.753,31.54,63.74,57.155,86.907,93.885q1.689,2.717,3.228,5.5c38.427,69.322-5.852,155.177-83.859,169.217a208.739,208.739,0,0,1-36.023,3.3c-111.826.575-207.946-93.934-209.166-205.755a207.861,207.861,0,0,1,9.882-65.935c15.705,67.139,75.658,113.506,121.475,165.647-20.3,1.138-36.437,2.044-52.572,2.946l-1.82,6.088c20.527,15.7,36.18,43.666,62.953,47.624,19.789-3.811,98.192,13.387,91.914-16.647-2.236-84.516,15.391-76.58-50.312-137.412l-4.105,1.649c-.942,16.251-1.885,32.466-2.945,50.72-30.312-20.062-52.8-48.958-78.131-74.793a84.26,84.26,0,0,1-14.053-22.751c-26.436-61.455,6.88-132.03,69.931-154.393,22.47-7.969,46.064-13.815,65.486-12.942C1656.315,479.153,1742.986,565.709,1747.944,672.3Z" transform="translate(0 0)" fill="#f4b205"/>
    <g id="Group_2" data-name="Group 2" transform="translate(1798.35 528.449)">
      <g id="Group_1" data-name="Group 1">
        <path id="Path_2" data-name="Path 2" d="M1446.3,659.5v-9.352h51.749V664.84c0,17.026,13.358,24.375,27.712,24.375,11.356,0,24.044-7.014,24.044-23.041,0-42.4-99.168-32.384-99.168-109.181,0-40.4,26.044-69.449,74.125-69.449,47.411,0,73.79,26.374,73.79,66.446v14.688H1546.8V550.648c0-10.351-10.017-16.361-22.376-16.361-11.685,0-21.7,6.345-21.7,20.034,0,34.057,99.169,26.378,99.169,107.182,0,43.4-28.713,73.125-77.132,73.125S1446.3,704.572,1446.3,659.5Z" transform="translate(-1446.297 -487.544)" fill="#f31819"/>
        <path id="Path_3" data-name="Path 3" d="M1489.752,667.177V554.989c0-39.733,30.716-67.445,78.8-67.445,47.75,0,78.8,27.712,78.8,67.445V667.177c0,39.737-30.715,67.449-78.466,67.449C1520.8,734.627,1489.752,706.914,1489.752,667.177Zm105.844.665V554.32c0-12.02-8.013-20.034-26.713-20.034-19.365,0-27.373,8.013-27.373,20.034V667.843c0,12.024,8.008,20.038,27.039,20.038S1595.6,679.867,1595.6,667.843Z" transform="translate(-1312.448 -487.544)" fill="#f31819"/>
        <path id="Path_4" data-name="Path 4" d="M1727.836,725.837h-44.4V573.247l-33.723,152.59h-37.064l-34.058-153.929V725.837h-44.069V488.771h61.431l35.062,135.564,35.061-135.564h61.766Z" transform="translate(-1174.566 -483.765)" fill="#f31819"/>
        <path id="Path_5" data-name="Path 5" d="M1587.954,667.177V554.989c0-39.733,30.717-67.445,78.136-67.445s78.461,27.712,78.461,67.445v29.716h-52.422V554.32c0-12.02-8.682-20.034-25.709-20.034-17.7,0-26.709,8.013-26.709,20.034V667.843c0,12.024,9.014,20.038,26.379,20.038s26.039-8.013,26.039-20.038V637.461h52.422v29.716c0,39.737-30.716,67.449-78.131,67.449S1587.954,706.914,1587.954,667.177Z" transform="translate(-1009.97 -487.544)" fill="#f31819"/>
        <path id="Path_6" data-name="Path 6" d="M1738.043,684.1h-48.415l-9.682,41.736h-50.419l51.088-237.066h67.109l51.424,237.066h-51.424ZM1714,551.879l-15.022,85.476h30.046Z" transform="translate(-881.919 -483.765)" fill="#f31819"/>
        <path id="Path_7" data-name="Path 7" d="M1752.06,640.357h-24.709v85.48H1675.6V488.771h78.8c41.405,0,70.787,26.378,70.787,64.777v22.037c0,21.034-9.018,38.733-23.71,50.084l30.716,100.168H1778.1Zm-24.709-46.742h30.385c9.682,0,15.691-6.01,15.691-15.692V551.21c0-9.682-6.01-15.693-15.357-15.693h-30.719Z" transform="translate(-740.004 -483.765)" fill="#f31819"/>
        <path id="Path_8" data-name="Path 8" d="M1823.486,578.026V554.32c0-12.02-11.016-20.034-26.378-20.034s-26.71,8.013-26.71,20.034V667.843c0,12.024,11.353,20.038,26.38,20.038,15.692,0,26.708-8.013,26.708-20.038v-20.03h-27.042V601.067h78.795v66.111c0,39.737-30.716,67.449-78.131,67.449s-78.462-27.712-78.462-67.449V554.989c0-39.733,30.716-67.445,78.132-67.445s78.461,27.712,78.461,67.445v23.037Z" transform="translate(-607.418 -487.544)" fill="#f31819"/>
        <path id="Path_9" data-name="Path 9" d="M1762.592,667.177V554.989c0-39.733,30.716-67.445,78.8-67.445,47.746,0,78.8,27.712,78.8,67.445V667.177c0,39.737-30.715,67.449-78.465,67.449C1793.643,734.627,1762.592,706.914,1762.592,667.177Zm105.844.665V554.32c0-12.02-8.015-20.034-26.713-20.034-19.364,0-27.378,8.013-27.378,20.034V667.843c0,12.024,8.014,20.038,27.043,20.038S1868.436,679.867,1868.436,667.843Z" transform="translate(-472.06 -487.544)" fill="#f31819"/>
      </g>
    </g>
    <g id="Group_4" data-name="Group 4" transform="translate(1822.391 800.894)">
      <g id="Group_3" data-name="Group 3" transform="translate(0)">
        <path id="Path_10" data-name="Path 10" d="M1532.189,555.687l-15.134,63.692h-14.774l-10-42.254L1482.1,619.379h-14.776l-15.139-63.692h11.719l11.347,51.887,11.715-51.887h10.09l12.248,51.8,11.261-51.8Z" transform="translate(-1452.189 -550.097)" fill="#f4b205"/>
        <path id="Path_11" data-name="Path 11" d="M1511.6,577.089v10.09h-28.826v1.354c0,7.295,3.419,10.625,9.548,10.625,4.595,0,8.471-2.338,8.471-6.214v-.718h10.718c0,9.911-7.654,15.855-19.188,15.855-13.061,0-20.266-7.927-20.266-19.911v-8.739c0-11.98,7.205-19.638,20-19.638C1503.766,559.793,1511.6,567.092,1511.6,577.089Zm-10.9,1.893v-1.8c0-5.679-2.791-8.47-8.471-8.47-6.394,0-9.368,3.6-9.458,10.27Z" transform="translate(-1390.987 -537.45)" fill="#f4b205"/>
        <path id="Path_12" data-name="Path 12" d="M1488.989,588.619v-9.364c0-11.983,7.21-19.462,19.908-19.462,11.894,0,19.462,7.3,19.462,18.646v1.085h-10.812V578.17c0-5.5-3.244-8.466-8.649-8.466-6.215,0-9.189,3.423-9.189,9.907v8.654c0,6.483,2.975,9.906,9.189,9.906,5.315,0,8.649-3.064,8.649-8.47V588.35h10.813v1.085c0,11.347-7.568,18.646-19.462,18.646C1496.285,608.082,1488.989,600.6,1488.989,588.619Z" transform="translate(-1338.835 -537.45)" fill="#f4b205"/>
        <path id="Path_13" data-name="Path 13" d="M1541,597.11v26.574h-10.723V597.11c0-7.115-3.782-10.449-9.009-10.449-5.133,0-9.367,2.975-9.641,9.1v27.924H1501V554.317h10.63v26.036a19.533,19.533,0,0,1,12.167-3.692C1534.154,576.66,1541,582.695,1541,597.11Z" transform="translate(-1301.846 -554.317)" fill="#f4b205"/>
        <path id="Path_14" data-name="Path 14" d="M1553.59,561.058v45.759h-7.205l-1.8-3.6c-3.33,3.33-8.108,4.863-13.693,4.863-10.993,0-17.835-5.679-17.835-19.283v-9.723c0-13.6,6.842-19.283,17.835-19.283,5.585,0,10.363,1.534,13.693,4.864l1.8-3.6Zm-10.718,29.005V577.811c-.718-5.406-4.235-8.018-9.641-8.018-6.035,0-9.458,3.064-9.458,9.817v8.654c0,6.752,3.423,9.817,9.458,9.817C1538.547,598.082,1542.154,595.466,1542.872,590.063Z" transform="translate(-1264.719 -537.45)" fill="#f4b205"/>
        <path id="Path_15" data-name="Path 15" d="M1565.767,580.243v26.574h-10.723V580.153c0-7.026-3.693-10.36-9.1-10.36-4.957,0-9.282,2.975-9.551,9.009v28.014h-10.629V561.058h6.936l1.982,3.961c3.424-3.513,8.378-5.227,13.783-5.227C1559.01,559.793,1565.767,565.828,1565.767,580.243Z" transform="translate(-1225.554 -537.45)" fill="#f4b205"/>
        <path id="Path_16" data-name="Path 16" d="M1578.361,561.058v50.088c0,9.911-6.487,17.655-20.091,17.655-13.24,0-19.188-7.209-19.637-15.4h10.718c.453,3.513,3.782,5.492,8.834,5.492,5.4,0,9.457-2.611,9.457-8.107v-6.124c-3.158,2.338-7.3,3.423-11.986,3.423-10.989,0-17.835-5.679-17.835-19.283v-9.723c0-13.6,6.846-19.283,17.835-19.283,5.589,0,10.363,1.534,13.7,4.864l1.8-3.6Zm-10.719,29.005V577.811c-.723-5.406-4.235-8.018-9.641-8.018-6.038,0-9.462,3.064-9.462,9.817v8.74c0,6.667,3.424,9.731,9.462,9.731C1563.314,598.082,1566.92,595.466,1567.643,590.063Z" transform="translate(-1188.428 -537.45)" fill="#f4b205"/>
        <path id="Path_17" data-name="Path 17" d="M1589.667,577.089v10.09h-28.83v1.354c0,7.295,3.423,10.625,9.551,10.625,4.6,0,8.467-2.338,8.467-6.214v-.718h10.722c0,9.911-7.658,15.855-19.188,15.855-13.06,0-20.271-7.927-20.271-19.911v-8.739c0-11.98,7.211-19.638,20-19.638C1581.828,559.793,1589.667,567.092,1589.667,577.089Zm-10.9,1.893v-1.8c0-5.679-2.795-8.47-8.471-8.47-6.4,0-9.367,3.6-9.461,10.27Z" transform="translate(-1150.555 -537.45)" fill="#f4b205"/>
        <path id="Path_18" data-name="Path 18" d="M1595.219,605.822v9.907h-6.487c-10.812,0-16.3-5.586-16.3-17.2v-18.65H1566.3v-9.907h6.129V556.9h10.718v13.069h11.438v9.907h-11.437v16.578c0,6.487,2.612,9.368,7.838,9.368Z" transform="translate(-1100.715 -546.361)" fill="#f4b205"/>
        <path id="Path_19" data-name="Path 19" d="M1615.24,597.11v26.574h-10.724V597.11c0-7.115-3.782-10.449-9-10.449-5.138,0-9.372,2.975-9.642,9.1v27.924h-10.633V554.317h10.633v26.036a19.522,19.522,0,0,1,12.162-3.692C1608.394,576.66,1615.24,582.695,1615.24,597.11Z" transform="translate(-1073.177 -554.317)" fill="#f4b205"/>
        <path id="Path_20" data-name="Path 20" d="M1626.839,577.089v10.09h-28.828v1.354c0,7.295,3.425,10.625,9.553,10.625,4.593,0,8.466-2.338,8.466-6.214v-.718h10.723c0,9.911-7.658,15.855-19.188,15.855-13.062,0-20.271-7.927-20.271-19.911v-8.739c0-11.98,7.209-19.638,20-19.638C1619,559.793,1626.839,567.092,1626.839,577.089Zm-10.9,1.893v-1.8c0-5.679-2.79-8.47-8.469-8.47-6.395,0-9.368,3.6-9.459,10.27Z" transform="translate(-1036.051 -537.45)" fill="#f4b205"/>
        <path id="Path_21" data-name="Path 21" d="M1663.741,560.1l-11.171,45.759h-11.082l-7.838-24.955-7.924,24.955h-11.082L1603.474,560.1h10.9l6.843,34.591,8.112-34.591h8.466l8.2,34.591,6.843-34.591Z" transform="translate(-986.21 -536.495)" fill="#f4b205"/>
        <path id="Path_22" data-name="Path 22" d="M1659.866,561.058v45.759h-7.211l-1.8-3.6c-3.332,3.33-8.11,4.863-13.7,4.863-10.987,0-17.835-5.679-17.835-19.283v-9.723c0-13.6,6.848-19.283,17.835-19.283,5.586,0,10.364,1.534,13.7,4.864l1.8-3.6Zm-10.72,29.005V577.811c-.722-5.406-4.235-8.018-9.642-8.018-6.038,0-9.461,3.064-9.461,9.817v8.654c0,6.752,3.423,9.817,9.461,9.817C1644.817,598.082,1648.425,595.466,1649.146,590.063Z" transform="translate(-937.385 -537.45)" fill="#f4b205"/>
        <path id="Path_23" data-name="Path 23" d="M1670.6,560.1v50.088c0,9.91-6.4,17.654-19.639,17.654-12.791,0-18.65-7.209-19.009-15.4h10.718c.363,3.513,3.514,5.492,8.107,5.492,5.231,0,9.1-2.611,9.1-8.107v-6.034a17.836,17.836,0,0,1-10.9,3.333c-10.36,0-17.026-6.039-17.026-20.36V560.1h10.718v26.664c0,7.026,2.979,10.359,8.472,10.359,4.594,0,8.465-2.974,8.739-9.009V560.1Z" transform="translate(-898.492 -536.495)" fill="#f4b205"/>
        <path id="Path_24" data-name="Path 24" d="M1708.559,560.1l-11.176,45.759H1686.3l-7.838-24.955-7.928,24.955h-11.081L1648.287,560.1h10.9l6.847,34.591,8.107-34.591h8.466l8.2,34.591,6.847-34.591Z" transform="translate(-848.178 -536.495)" fill="#f4b205"/>
        <path id="Path_25" data-name="Path 25" d="M1703.685,577.089v10.09h-28.826v1.354c0,7.295,3.423,10.625,9.548,10.625,4.593,0,8.47-2.338,8.47-6.214v-.718H1703.6c0,9.911-7.658,15.855-19.191,15.855-13.062,0-20.268-7.927-20.268-19.911v-8.739c0-11.98,7.206-19.638,20-19.638C1695.847,559.793,1703.685,567.092,1703.685,577.089Zm-10.9,1.893v-1.8c0-5.679-2.792-8.47-8.471-8.47-6.395,0-9.369,3.6-9.458,10.27Z" transform="translate(-799.351 -537.45)" fill="#f4b205"/>
        <path id="Path_26" data-name="Path 26" d="M1721.609,554.317v69.367H1714.4l-1.8-3.6c-3.334,3.33-8.106,4.863-13.514,4.863-11.172,0-18.018-5.679-18.018-19.283v-9.723c0-13.6,6.846-19.282,18.018-19.282a19.466,19.466,0,0,1,11.8,3.423V554.317Zm-10.718,52.614V594.678c-.723-5.406-4.236-8.018-9.642-8.018-6.039,0-9.462,3.064-9.462,9.817v8.739c0,6.667,3.423,9.731,9.462,9.731C1706.563,614.948,1710.169,612.333,1710.892,606.931Z" transform="translate(-747.201 -554.317)" fill="#f4b205"/>
        <path id="Path_27" data-name="Path 27" d="M1693.365,588.619v-9.364c0-11.983,7.21-19.462,20.181-19.462,13.064,0,20.266,7.479,20.266,19.462v9.364c0,11.983-7.2,19.462-20.176,19.462S1693.365,600.6,1693.365,588.619Zm29.729-.354V579.61c0-6.483-2.886-9.907-9.458-9.907s-9.553,3.423-9.553,9.907v8.654c0,6.483,2.976,9.906,9.463,9.906C1720.123,598.171,1723.094,594.748,1723.094,588.265Z" transform="translate(-709.327 -537.45)" fill="#f4b205"/>
        <path id="Path_28" data-name="Path 28" d="M1751.478,595.943v9.723c0,13.6-6.851,19.283-18.018,19.283-5.5,0-10.18-1.534-13.514-4.863l-1.8,3.6h-7.205V554.317h10.629v25.857c3.153-2.433,7.3-3.513,11.894-3.513C1744.627,576.66,1751.478,582.34,1751.478,595.943Zm-10.722.535c0-6.753-3.424-9.817-9.458-9.817-5.676,0-9.463,2.881-9.731,9.009v10.27c.269,6.128,4.146,9.009,9.731,9.009,6.034,0,9.458-3.063,9.458-9.731Z" transform="translate(-655.203 -554.317)" fill="#f4b205"/>
        <path id="Path_29" data-name="Path 29" d="M1761.681,560.1v45.759h-7.021l-1.808-3.693a17.375,17.375,0,0,1-12.792,4.958c-10.359,0-16.937-6.039-16.937-20.36V560.1h10.723v26.664c0,7.026,2.97,10.359,8.381,10.359,4.68,0,8.552-2.974,8.735-9.009V560.1Z" transform="translate(-617.668 -536.495)" fill="#f4b205"/>
        <path id="Path_30" data-name="Path 30" d="M1734.669,592.679v-1H1745.3v1c0,3.778,3.517,6.03,8.654,6.03,4.32,0,7.475-1.709,7.475-4.68,0-8.381-25.945-2.795-25.945-19.462,0-8.915,7.209-14.774,17.838-14.774,11.081,0,18.019,6.214,18.019,14.954v.9h-10.629v-.9c0-3.423-2.885-5.581-7.39-5.581-4.595,0-7.3,2.073-7.3,4.68,0,7.568,26.035,2.436,26.035,19.462,0,9.911-8.74,14.774-18.646,14.774C1741.879,608.082,1734.669,601.774,1734.669,592.679Z" transform="translate(-582.107 -537.45)" fill="#f4b205"/>
        <path id="Path_31" data-name="Path 31" d="M1745.816,555.863h10.992V567.3h-10.992Zm.179,17.3h10.724v45.759H1746Z" transform="translate(-547.77 -549.555)" fill="#f4b205"/>
        <path id="Path_32" data-name="Path 32" d="M1791.293,580.243v26.574H1780.57V580.153c0-7.026-3.692-10.36-9.1-10.36-4.958,0-9.277,2.975-9.552,9.009v28.014h-10.629V561.058h6.937l1.987,3.961c3.419-3.513,8.372-5.227,13.778-5.227C1784.532,559.793,1791.293,565.828,1791.293,580.243Z" transform="translate(-530.905 -537.45)" fill="#f4b205"/>
        <path id="Path_33" data-name="Path 33" d="M1802.891,577.089v10.09h-28.826v1.354c0,7.295,3.423,10.625,9.551,10.625,4.59,0,8.466-2.338,8.466-6.214v-.718H1802.8c0,9.911-7.658,15.855-19.189,15.855-13.064,0-20.271-7.927-20.271-19.911v-8.739c0-11.98,7.206-19.638,20-19.638C1795.053,559.793,1802.891,567.092,1802.891,577.089Zm-10.9,1.893v-1.8c0-5.679-2.791-8.47-8.47-8.47-6.395,0-9.368,3.6-9.458,10.27Z" transform="translate(-493.776 -537.45)" fill="#f4b205"/>
        <path id="Path_34" data-name="Path 34" d="M1774.734,592.679v-1h10.632v1c0,3.778,3.515,6.03,8.65,6.03,4.325,0,7.476-1.709,7.476-4.68,0-8.381-25.942-2.795-25.942-19.462,0-8.915,7.206-14.774,17.84-14.774,11.077,0,18.018,6.214,18.018,14.954v.9h-10.634v-.9c0-3.423-2.884-5.581-7.384-5.581-4.595,0-7.3,2.073-7.3,4.68,0,7.568,26.032,2.436,26.032,19.462,0,9.911-8.736,14.774-18.647,14.774C1781.943,608.082,1774.734,601.774,1774.734,592.679Z" transform="translate(-458.697 -537.45)" fill="#f4b205"/>
        <path id="Path_35" data-name="Path 35" d="M1785.221,592.679v-1h10.63v1c0,3.778,3.517,6.03,8.649,6.03,4.324,0,7.476-1.709,7.476-4.68,0-8.381-25.942-2.795-25.942-19.462,0-8.915,7.21-14.774,17.839-14.774,11.082,0,18.019,6.214,18.019,14.954v.9h-10.629v-.9c0-3.423-2.885-5.581-7.39-5.581-4.595,0-7.3,2.073-7.3,4.68,0,7.568,26.034,2.436,26.034,19.462,0,9.911-8.739,14.774-18.65,14.774C1792.428,608.082,1785.221,601.774,1785.221,592.679Z" transform="translate(-426.395 -537.45)" fill="#f4b205"/>
      </g>
    </g>
  </g>
</svg>
